# xmcd
#
# Track frame offsets:
# 150
# 15378
# 29485
# 46585
# 65872
# 79467
# 94258
# 107444
# 122967
# 134838
# 159009
# 172726
# 208103
# 222762
# 238479
# 250979
# 275787
# 293908
#
# Disc length: 4098 seconds
#
#
# Revision: 0
# Processed by: cddbd v1.5.2PL0 Copyright (c) Steve Scherf et al.
# Submitted via: FreeRIP 2.943 
#
DISCID=0e100012
DTITLE=Blues Brothers - Own Album
DYEAR=1900
DGENRE=Soundtrack
TTITLE0=Evrybody need somebody to love
TTITLE1=Gimme some lovin'
TTITLE2=Peter gunn theme
TTITLE3=Statesboro bules
TTITLE4=Hey banterder
TTITLE5=Jailhouse rock
TTITLE6=Messin' with the kid
TTITLE7=Minnie the moocher
TTITLE8=Rawhide
TTITLE9=Shot gun blues
TTITLE10=Soul man
TTITLE11=Sweet home chicago
TTITLE12=Featuring Aretha Franklin
TTITLE13=Eddie Floyd, Wilson Pickett and Johnny
TTITLE14=Looking for a fox
TTITLE15=The Louisianna a fox
TTITLE16=The blues brothers and
TTITLE17=Rubber Biscuit
EXTD=
EXTT0=
EXTT1=
EXTT2=
EXTT3=
EXTT4=
EXTT5=
EXTT6=
EXTT7=
EXTT8=
EXTT9=
EXTT10=
EXTT11=
EXTT12=
EXTT13=
EXTT14=
EXTT15=
EXTT16=
EXTT17=
PLAYORDER=
